<svg width="40" height="40" viewBox="0 0 40 40" fill="none" xmlns="http://www.w3.org/2000/svg">
<mask id="mask0_2374_6265" style="mask-type:alpha" maskUnits="userSpaceOnUse" x="0" y="0" width="40" height="40">
<rect width="40" height="40" fill="#D9D9D9"/>
</mask>
<g mask="url(#mask0_2374_6265)">
<path d="M12.958 28.375H21.708C22.0973 28.375 22.4307 28.236 22.708 27.958C22.986 27.6807 23.125 27.3473 23.125 26.958C23.125 26.5693 22.986 26.243 22.708 25.979C22.4307 25.715 22.0973 25.583 21.708 25.583H12.958C12.5693 25.583 12.243 25.715 11.979 25.979C11.715 26.243 11.583 26.5693 11.583 26.958C11.583 27.3747 11.715 27.715 11.979 27.979C12.243 28.243 12.5693 28.375 12.958 28.375ZM12.958 21.375H27.042C27.4307 21.375 27.757 21.243 28.021 20.979C28.285 20.715 28.417 20.3887 28.417 20C28.417 19.6113 28.285 19.285 28.021 19.021C27.757 18.757 27.4307 18.625 27.042 18.625H12.958C12.5693 18.625 12.243 18.757 11.979 19.021C11.715 19.285 11.583 19.6113 11.583 20C11.583 20.3887 11.715 20.715 11.979 20.979C12.243 21.243 12.5693 21.375 12.958 21.375ZM12.958 14.417H27.042C27.4307 14.417 27.757 14.285 28.021 14.021C28.285 13.757 28.417 13.4307 28.417 13.042C28.417 12.6253 28.285 12.285 28.021 12.021C27.757 11.757 27.4307 11.625 27.042 11.625H12.958C12.5693 11.625 12.243 11.764 11.979 12.042C11.715 12.3193 11.583 12.6527 11.583 13.042C11.583 13.4307 11.715 13.757 11.979 14.021C12.243 14.285 12.5693 14.417 12.958 14.417ZM7.792 35C7.042 35 6.389 34.7223 5.833 34.167C5.27767 33.611 5 32.958 5 32.208V7.792C5 7.042 5.27767 6.389 5.833 5.833C6.389 5.27767 7.042 5 7.792 5H32.208C32.958 5 33.611 5.27767 34.167 5.833C34.7223 6.389 35 7.042 35 7.792V32.208C35 32.958 34.7223 33.611 34.167 34.167C33.611 34.7223 32.958 35 32.208 35H7.792ZM7.792 32.208H32.208V7.792H7.792V32.208Z" fill="white"/>
</g>
</svg>
