<svg width="40" height="40" viewBox="0 0 40 40" fill="none" xmlns="http://www.w3.org/2000/svg">
<mask id="mask0_2374_6270" style="mask-type:alpha" maskUnits="userSpaceOnUse" x="0" y="0" width="40" height="40">
<rect width="40" height="40" fill="#D9D9D9"/>
</mask>
<g mask="url(#mask0_2374_6270)">
<path d="M20 26.833C20.1387 26.833 20.2637 26.8053 20.375 26.75C20.4863 26.6947 20.5697 26.5837 20.625 26.417L22.417 22.417L26.417 20.625C26.5837 20.5697 26.6947 20.4863 26.75 20.375C26.8053 20.2637 26.833 20.1387 26.833 20C26.833 19.8613 26.8053 19.7363 26.75 19.625C26.6947 19.5137 26.5837 19.4303 26.417 19.375L22.417 17.583L20.625 13.583C20.5697 13.4163 20.4863 13.3053 20.375 13.25C20.2637 13.1947 20.1387 13.167 20 13.167C19.8613 13.167 19.7363 13.1947 19.625 13.25C19.5137 13.3053 19.4303 13.4163 19.375 13.583L17.583 17.583L13.583 19.375C13.4163 19.4303 13.3053 19.5137 13.25 19.625C13.1947 19.7363 13.167 19.8613 13.167 20C13.167 20.1387 13.1947 20.2637 13.25 20.375C13.3053 20.4863 13.4163 20.5697 13.583 20.625L17.583 22.417L19.375 26.417C19.4303 26.5837 19.5137 26.6947 19.625 26.75C19.7363 26.8053 19.8613 26.833 20 26.833ZM7.792 35C7.042 35 6.389 34.7223 5.833 34.167C5.27767 33.611 5 32.958 5 32.208V7.792C5 7.042 5.27767 6.389 5.833 5.833C6.389 5.27767 7.042 5 7.792 5H32.208C32.958 5 33.611 5.27767 34.167 5.833C34.7223 6.389 35 7.042 35 7.792V32.208C35 32.958 34.7223 33.611 34.167 34.167C33.611 34.7223 32.958 35 32.208 35H7.792ZM7.792 32.208H32.208V7.792H7.792V32.208Z" fill="white"/>
</g>
</svg>
