<svg width="40" height="40" viewBox="0 0 40 40" fill="none" xmlns="http://www.w3.org/2000/svg">
<mask id="mask0_2374_6280" style="mask-type:alpha" maskUnits="userSpaceOnUse" x="0" y="0" width="40" height="40">
<rect width="40" height="40" fill="#D9D9D9"/>
</mask>
<g mask="url(#mask0_2374_6280)">
<path d="M22.8371 20.2778C23.1029 20.2778 23.3468 20.1781 23.5688 19.9788C23.7908 19.7794 23.9251 19.5272 23.9719 19.2223C24.046 18.8056 24.1918 18.4399 24.4094 18.125C24.627 17.8102 24.9904 17.4075 25.4997 16.9167C26.2775 16.1575 26.8099 15.5126 27.0969 14.9821C27.3839 14.4517 27.5274 13.828 27.5274 13.1112C27.5274 11.8448 27.0899 10.8107 26.2149 10.0086C25.3399 9.20662 24.1941 8.80563 22.7774 8.80563C21.8793 8.80563 21.0575 9.01164 20.3122 9.42367C19.5668 9.83569 18.9719 10.4167 18.5274 11.1667C18.3793 11.4075 18.3631 11.6667 18.4788 11.9445C18.5946 12.2223 18.7989 12.4306 19.0918 12.5695C19.336 12.6806 19.6015 12.6852 19.8886 12.5834C20.1756 12.4815 20.4117 12.2964 20.5969 12.0278C20.8839 11.6389 21.208 11.3473 21.5691 11.1528C21.9302 10.9584 22.3357 10.8612 22.7856 10.8612C23.5568 10.8612 24.1835 11.0811 24.6655 11.5209C25.1475 11.9607 25.3886 12.5278 25.3886 13.2223C25.3886 13.7223 25.2682 14.169 25.0275 14.5625C24.7867 14.9561 24.3608 15.3982 23.7497 15.889C23.0182 16.5464 22.5228 17.0834 22.2636 17.5001C22.0043 17.9167 21.8469 18.4908 21.7913 19.2223C21.7636 19.5186 21.8524 19.7686 22.0578 19.9723C22.2631 20.176 22.5229 20.2778 22.8371 20.2778ZM22.8608 25.5556C23.3255 25.5556 23.7287 25.3848 24.0704 25.043C24.4121 24.7013 24.583 24.2981 24.583 23.8334C24.583 23.3687 24.4121 22.9654 24.0704 22.6238C23.7287 22.282 23.3255 22.1112 22.8608 22.1112C22.396 22.1112 21.9928 22.282 21.6511 22.6238C21.3094 22.9654 21.1386 23.3687 21.1386 23.8334C21.1386 24.2981 21.3094 24.7013 21.6511 25.043C21.9928 25.3848 22.396 25.5556 22.8608 25.5556ZM11.6663 31.1112C10.9163 31.1112 10.2658 30.8357 9.71493 30.2848C9.16401 29.7339 8.88855 29.0834 8.88855 28.3334V6.11112C8.88855 5.36112 9.16401 4.71067 9.71493 4.15975C10.2658 3.60883 10.9163 3.33337 11.6663 3.33337H33.8886C34.6386 3.33337 35.2891 3.60883 35.84 4.15975C36.3909 4.71067 36.6663 5.36112 36.6663 6.11112V28.3334C36.6663 29.0834 36.3909 29.7339 35.84 30.2848C35.2891 30.8357 34.6386 31.1112 33.8886 31.1112H11.6663ZM11.6663 28.3334H33.8886V6.11112H11.6663V28.3334ZM6.11076 36.6667C5.36076 36.6667 4.7103 36.3913 4.15938 35.8403C3.60847 35.2894 3.33301 34.639 3.33301 33.889V10.2778C3.33301 9.88426 3.46658 9.5544 3.73372 9.28821C4.00085 9.02201 4.33187 8.88892 4.72676 8.88892C5.12165 8.88892 5.45104 9.02201 5.71492 9.28821C5.97881 9.5544 6.11076 9.88426 6.11076 10.2778V33.889H29.7219C30.1155 33.889 30.4453 34.0225 30.7115 34.2897C30.9777 34.5568 31.1108 34.8878 31.1108 35.2827C31.1108 35.6776 30.9777 36.007 30.7115 36.2709C30.4453 36.5348 30.1155 36.6667 29.7219 36.6667H6.11076Z" fill="white"/>
</g>
</svg>
