<svg width="40" height="40" viewBox="0 0 40 40" fill="none" xmlns="http://www.w3.org/2000/svg">
<mask id="mask0_2374_6290" style="mask-type:alpha" maskUnits="userSpaceOnUse" x="0" y="0" width="40" height="40">
<rect width="40" height="40" fill="#D9D9D9"/>
</mask>
<g mask="url(#mask0_2374_6290)">
<path d="M12.5033 29.7222C13.1214 29.7222 13.6458 29.5058 14.0764 29.0731C14.5069 28.6404 14.7222 28.1149 14.7222 27.4967C14.7222 26.8786 14.5058 26.3542 14.0731 25.9236C13.6404 25.4931 13.1149 25.2778 12.4967 25.2778C11.8786 25.2778 11.3542 25.4942 10.9236 25.9269C10.4931 26.3596 10.2778 26.8851 10.2778 27.5033C10.2778 28.1214 10.4942 28.6458 10.9269 29.0764C11.3596 29.5069 11.8851 29.7222 12.5033 29.7222ZM12.5033 14.7222C13.1214 14.7222 13.6458 14.5058 14.0764 14.0731C14.5069 13.6404 14.7222 13.1149 14.7222 12.4967C14.7222 11.8786 14.5058 11.3542 14.0731 10.9236C13.6404 10.4931 13.1149 10.2778 12.4967 10.2778C11.8786 10.2778 11.3542 10.4942 10.9236 10.9269C10.4931 11.3596 10.2778 11.8851 10.2778 12.5033C10.2778 13.1214 10.4942 13.6458 10.9269 14.0764C11.3596 14.5069 11.8851 14.7222 12.5033 14.7222ZM20.0033 22.2222C20.6214 22.2222 21.1458 22.0058 21.5764 21.5731C22.0069 21.1404 22.2222 20.6149 22.2222 19.9967C22.2222 19.3786 22.0058 18.8542 21.5731 18.4236C21.1404 17.9931 20.6149 17.7778 19.9967 17.7778C19.3786 17.7778 18.8542 17.9942 18.4236 18.4269C17.9931 18.8596 17.7778 19.3851 17.7778 20.0033C17.7778 20.6214 17.9942 21.1458 18.4269 21.5764C18.8596 22.0069 19.3851 22.2222 20.0033 22.2222ZM27.5033 29.7222C28.1214 29.7222 28.6458 29.5058 29.0764 29.0731C29.5069 28.6404 29.7222 28.1149 29.7222 27.4967C29.7222 26.8786 29.5058 26.3542 29.0731 25.9236C28.6404 25.4931 28.1149 25.2778 27.4967 25.2778C26.8786 25.2778 26.3542 25.4942 25.9236 25.9269C25.4931 26.3596 25.2778 26.8851 25.2778 27.5033C25.2778 28.1214 25.4942 28.6458 25.9269 29.0764C26.3596 29.5069 26.8851 29.7222 27.5033 29.7222ZM27.5033 14.7222C28.1214 14.7222 28.6458 14.5058 29.0764 14.0731C29.5069 13.6404 29.7222 13.1149 29.7222 12.4967C29.7222 11.8786 29.5058 11.3542 29.0731 10.9236C28.6404 10.4931 28.1149 10.2778 27.4967 10.2778C26.8786 10.2778 26.3542 10.4942 25.9236 10.9269C25.4931 11.3596 25.2778 11.8851 25.2778 12.5033C25.2778 13.1214 25.4942 13.6458 25.9269 14.0764C26.3596 14.5069 26.8851 14.7222 27.5033 14.7222ZM7.77775 35C7.02775 35 6.37729 34.7245 5.82637 34.1736C5.27546 33.6227 5 32.9722 5 32.2222V7.77775C5 7.02775 5.27546 6.37729 5.82637 5.82637C6.37729 5.27546 7.02775 5 7.77775 5H32.2222C32.9722 5 33.6227 5.27546 34.1736 5.82637C34.7245 6.37729 35 7.02775 35 7.77775V32.2222C35 32.9722 34.7245 33.6227 34.1736 34.1736C33.6227 34.7245 32.9722 35 32.2222 35H7.77775ZM7.77775 32.2222H32.2222V7.77775H7.77775V32.2222Z" fill="white"/>
</g>
</svg>
