<svg width="40" height="40" viewBox="0 0 40 40" fill="none" xmlns="http://www.w3.org/2000/svg">
<mask id="mask0_2374_6275" style="mask-type:alpha" maskUnits="userSpaceOnUse" x="0" y="0" width="40" height="40">
<rect width="40" height="40" fill="#D9D9D9"/>
</mask>
<g mask="url(#mask0_2374_6275)">
<path d="M11.1108 30.7778L19.9997 27L28.8886 30.7778V7.63883H11.1108V30.7778ZM10.2774 34.1666C9.81448 34.3703 9.37467 34.3356 8.95801 34.0625C8.54134 33.7893 8.33301 33.4028 8.33301 32.9028V7.63883C8.33301 6.88883 8.60847 6.23838 9.15938 5.68746C9.7103 5.13654 10.3608 4.86108 11.1108 4.86108H28.8886C29.6386 4.86108 30.289 5.13654 30.84 5.68746C31.3909 6.23838 31.6663 6.88883 31.6663 7.63883V32.9028C31.6663 33.4028 31.458 33.7893 31.0413 34.0625C30.6247 34.3356 30.1849 34.3703 29.7219 34.1666L19.9997 30L10.2774 34.1666Z" fill="white"/>
</g>
</svg>
