<svg width="40" height="40" viewBox="0 0 40 40" fill="none" xmlns="http://www.w3.org/2000/svg">
<mask id="mask0_2374_6285" style="mask-type:alpha" maskUnits="userSpaceOnUse" x="0" y="0" width="40" height="40">
<rect width="40" height="40" fill="#D9D9D9"/>
</mask>
<g mask="url(#mask0_2374_6285)">
<path d="M13.1715 28.4167C13.5664 28.4167 13.8958 28.2836 14.1597 28.0174C14.4236 27.7512 14.5555 27.4213 14.5555 27.0278V18.2778C14.5555 17.8843 14.422 17.5544 14.1548 17.2882C13.8877 17.022 13.5567 16.8889 13.1618 16.8889C12.7669 16.8889 12.4375 17.022 12.1736 17.2882C11.9097 17.5544 11.7778 17.8843 11.7778 18.2778V27.0278C11.7778 27.4213 11.9114 27.7512 12.1785 28.0174C12.4456 28.2836 12.7767 28.4167 13.1715 28.4167ZM20.0049 28.4167C20.3998 28.4167 20.7292 28.2836 20.993 28.0174C21.2569 27.7512 21.3889 27.4213 21.3889 27.0278V12.9722C21.3889 12.5787 21.2553 12.2488 20.9882 11.9826C20.721 11.7164 20.39 11.5833 19.9951 11.5833C19.6002 11.5833 19.2708 11.7164 19.007 11.9826C18.7431 12.2488 18.6111 12.5787 18.6111 12.9722V27.0278C18.6111 27.4213 18.7447 27.7512 19.0118 28.0174C19.279 28.2836 19.61 28.4167 20.0049 28.4167ZM26.8382 28.4167C27.2331 28.4167 27.5625 28.2836 27.8264 28.0174C28.0903 27.7512 28.2222 27.4213 28.2222 27.0278V23.4722C28.2222 23.0787 28.0886 22.7489 27.8215 22.4827C27.5544 22.2164 27.2233 22.0833 26.8285 22.0833C26.4336 22.0833 26.1042 22.2164 25.8403 22.4827C25.5764 22.7489 25.4445 23.0787 25.4445 23.4722V27.0278C25.4445 27.4213 25.578 27.7512 25.8452 28.0174C26.1123 28.2836 26.4433 28.4167 26.8382 28.4167ZM7.77775 35C7.02775 35 6.37729 34.7245 5.82637 34.1736C5.27546 33.6227 5 32.9722 5 32.2222V7.77775C5 7.02775 5.27546 6.37729 5.82637 5.82637C6.37729 5.27546 7.02775 5 7.77775 5H32.2222C32.9722 5 33.6227 5.27546 34.1736 5.82637C34.7245 6.37729 35 7.02775 35 7.77775V32.2222C35 32.9722 34.7245 33.6227 34.1736 34.1736C33.6227 34.7245 32.9722 35 32.2222 35H7.77775ZM7.77775 32.2222H32.2222V7.77775H7.77775V32.2222Z" fill="#626262"/>
</g>
</svg>
